<mxfile host="Electron" modified="2024-06-18T07:06:11.938Z" agent="Mozilla/5.0 (Windows NT 10.0; Win64; x64) AppleWebKit/537.36 (KHTML, like Gecko) draw.io/24.5.3 Chrome/124.0.6367.207 Electron/30.0.6 Safari/537.36" etag="oGbj1QO31cep5J-TZ_i7" version="24.5.3" type="device">
  <diagram name="Pagina-1" id="Lnr7Gs46qrUPT3brMh_M">
    <mxGraphModel dx="1050" dy="621" grid="1" gridSize="10" guides="1" tooltips="1" connect="1" arrows="1" fold="1" page="1" pageScale="1" pageWidth="827" pageHeight="1169" math="0" shadow="0">
      <root>
        <mxCell id="0" />
        <mxCell id="1" parent="0" />
        <mxCell id="iWa1m6QjN4jCnU1nGd90-1" value="Utente" style="shape=umlActor;verticalLabelPosition=bottom;verticalAlign=top;html=1;outlineConnect=0;" parent="1" vertex="1">
          <mxGeometry x="50" y="280" width="30" height="60" as="geometry" />
        </mxCell>
        <mxCell id="iWa1m6QjN4jCnU1nGd90-4" value="Visualizza Posizione attuale" style="ellipse;whiteSpace=wrap;html=1;" parent="1" vertex="1">
          <mxGeometry x="180" y="230" width="130" height="60" as="geometry" />
        </mxCell>
        <mxCell id="iWa1m6QjN4jCnU1nGd90-5" value="" style="endArrow=classic;html=1;rounded=0;entryX=0;entryY=1;entryDx=0;entryDy=0;" parent="1" target="iWa1m6QjN4jCnU1nGd90-4" edge="1">
          <mxGeometry width="50" height="50" relative="1" as="geometry">
            <mxPoint x="100" y="340" as="sourcePoint" />
            <mxPoint x="245" y="261" as="targetPoint" />
          </mxGeometry>
        </mxCell>
        <mxCell id="iWa1m6QjN4jCnU1nGd90-6" value="Visualizza Posizioni" style="ellipse;whiteSpace=wrap;html=1;" parent="1" vertex="1">
          <mxGeometry x="180" y="390" width="130" height="60" as="geometry" />
        </mxCell>
        <mxCell id="iWa1m6QjN4jCnU1nGd90-7" value="" style="endArrow=classic;html=1;rounded=0;entryX=0;entryY=0;entryDx=0;entryDy=0;" parent="1" target="iWa1m6QjN4jCnU1nGd90-6" edge="1">
          <mxGeometry width="50" height="50" relative="1" as="geometry">
            <mxPoint x="90" y="360" as="sourcePoint" />
            <mxPoint x="180" y="450" as="targetPoint" />
          </mxGeometry>
        </mxCell>
        <mxCell id="iWa1m6QjN4jCnU1nGd90-12" value="Login" style="ellipse;whiteSpace=wrap;html=1;" parent="1" vertex="1">
          <mxGeometry x="580" y="270" width="130" height="60" as="geometry" />
        </mxCell>
        <mxCell id="iWa1m6QjN4jCnU1nGd90-13" value="Sign In" style="ellipse;whiteSpace=wrap;html=1;" parent="1" vertex="1">
          <mxGeometry x="800" y="190" width="130" height="60" as="geometry" />
        </mxCell>
        <mxCell id="iWa1m6QjN4jCnU1nGd90-15" value="&amp;lt;&amp;lt;include&amp;gt;&amp;gt;" style="endArrow=open;endSize=12;dashed=1;html=1;rounded=0;entryX=0;entryY=1;entryDx=0;entryDy=0;exitX=1;exitY=0;exitDx=0;exitDy=0;" parent="1" source="iWa1m6QjN4jCnU1nGd90-12" target="iWa1m6QjN4jCnU1nGd90-13" edge="1">
          <mxGeometry width="160" relative="1" as="geometry">
            <mxPoint x="770" y="360" as="sourcePoint" />
            <mxPoint x="928" y="292" as="targetPoint" />
          </mxGeometry>
        </mxCell>
        <mxCell id="iWa1m6QjN4jCnU1nGd90-16" value="&amp;lt;&amp;lt;include&amp;gt;&amp;gt;" style="endArrow=open;endSize=12;dashed=1;html=1;rounded=0;exitX=1;exitY=0.5;exitDx=0;exitDy=0;entryX=0;entryY=0.5;entryDx=0;entryDy=0;" parent="1" source="iWa1m6QjN4jCnU1nGd90-4" target="iWa1m6QjN4jCnU1nGd90-12" edge="1">
          <mxGeometry width="160" relative="1" as="geometry">
            <mxPoint x="490" y="350" as="sourcePoint" />
            <mxPoint x="779.003877712661" y="468.998545301655" as="targetPoint" />
          </mxGeometry>
        </mxCell>
        <mxCell id="iWa1m6QjN4jCnU1nGd90-17" value="&amp;lt;&amp;lt;include&amp;gt;&amp;gt;" style="endArrow=open;endSize=12;dashed=1;html=1;rounded=0;exitX=1.018;exitY=0.317;exitDx=0;exitDy=0;entryX=0;entryY=1;entryDx=0;entryDy=0;exitPerimeter=0;" parent="1" source="iWa1m6QjN4jCnU1nGd90-6" target="iWa1m6QjN4jCnU1nGd90-12" edge="1">
          <mxGeometry width="160" relative="1" as="geometry">
            <mxPoint x="410" y="420" as="sourcePoint" />
            <mxPoint x="680" y="460" as="targetPoint" />
          </mxGeometry>
        </mxCell>
      </root>
    </mxGraphModel>
  </diagram>
</mxfile>
